<svg width="18" height="18" viewBox="0 0 18 18" fill="none" xmlns="http://www.w3.org/2000/svg">
<path d="M14.8196 9.77013L14.7932 9.98108L14.9607 10.112L16.7176 11.486C16.7177 11.486 16.7178 11.4861 16.7178 11.4861C16.724 11.4912 16.7377 11.512 16.7221 11.5429L15.0587 14.4206L15.0586 14.4206L15.0541 14.4287C15.0493 14.4375 15.0436 14.4415 15.0377 14.4436C15.0313 14.4459 15.0227 14.4466 15.0124 14.4427C15.0122 14.4426 15.0119 14.4425 15.0116 14.4424L12.9397 13.6103L12.7439 13.5317L12.575 13.6583C12.161 13.9688 11.722 14.2343 11.2494 14.428L11.0509 14.5094L11.0205 14.7217L10.7038 16.9301L10.7037 16.9301L10.7029 16.9368C10.7026 16.9394 10.7014 16.9436 10.6955 16.9486C10.6895 16.9537 10.6799 16.9583 10.6667 16.9583H7.33332C7.32005 16.9583 7.31046 16.9537 7.30445 16.9486C7.29861 16.9436 7.29742 16.9394 7.29709 16.9368L7.29715 16.9368L7.29619 16.9301L6.97953 14.7217L6.94907 14.5094L6.75053 14.428C6.27535 14.2332 5.8375 13.9756 5.42863 13.6611L5.25892 13.5305L5.06024 13.6103L2.99414 14.4401C2.98517 14.4426 2.97247 14.4428 2.96058 14.4388C2.94946 14.435 2.94682 14.4305 2.94587 14.4287L2.94597 14.4287L2.94132 14.4206L1.27789 11.5429C1.2623 11.512 1.27592 11.4913 1.28215 11.4861C1.28222 11.4861 1.28229 11.486 1.28235 11.486L3.03932 10.112L3.2068 9.98108L3.18043 9.77013C3.14805 9.51114 3.12499 9.2532 3.12499 8.99998C3.12499 8.74675 3.14805 8.48881 3.18043 8.22982L3.2068 8.01887L3.03932 7.88791L1.28235 6.51398C1.28224 6.51389 1.28214 6.5138 1.28203 6.51371C1.27422 6.50742 1.26951 6.4991 1.26786 6.49075C1.26643 6.48352 1.267 6.47563 1.27284 6.46575L1.27285 6.46576L1.27465 6.46264L2.94132 3.57931L2.94142 3.57937L2.94587 3.57121C2.95064 3.56247 2.95633 3.55848 2.96232 3.55634C2.96866 3.55408 2.97722 3.55338 2.98753 3.55722L5.06024 4.38963L5.25612 4.46829L5.42499 4.34164C5.83893 4.03118 6.27799 3.76563 6.75053 3.57196L6.94907 3.4906L6.97953 3.2782L7.29619 1.06987L7.29625 1.06988L7.29709 1.06315C7.29742 1.06051 7.29861 1.05637 7.30445 1.05136C7.31046 1.04621 7.32005 1.04164 7.33332 1.04164H10.6667C10.6799 1.04164 10.6895 1.04621 10.6955 1.05136C10.7014 1.05637 10.7026 1.06051 10.7029 1.06315L10.7028 1.06316L10.7038 1.06987L11.0205 3.2782L11.0509 3.4906L11.2494 3.57196C11.7246 3.76671 12.1625 4.02436 12.5713 4.33888L12.7411 4.46942L12.9397 4.38963L15.0058 3.55987C15.0148 3.55736 15.0275 3.55711 15.0394 3.56117C15.0505 3.56495 15.0532 3.56946 15.0541 3.57121L15.054 3.57127L15.0587 3.57931L16.7221 6.45704C16.7377 6.48801 16.724 6.50872 16.7178 6.51382C16.7178 6.51388 16.7177 6.51393 16.7176 6.51398L14.9607 7.88791L14.7932 8.01887L14.8196 8.22982C14.852 8.48916 14.875 8.73864 14.875 8.99998C14.875 9.2613 14.852 9.51079 14.8196 9.77013ZM5.70832 8.99998C5.70832 10.8154 7.18455 12.2916 8.99999 12.2916C10.8154 12.2916 12.2917 10.8154 12.2917 8.99998C12.2917 7.18454 10.8154 5.70831 8.99999 5.70831C7.18455 5.70831 5.70832 7.18453 5.70832 8.99998Z" fill="white" stroke="white" stroke-width="0.75"/>
</svg>
