<svg width="24" height="24" viewBox="0 0 17 16" fill="none" xmlns="http://www.w3.org/2000/svg">
<path fill-rule="evenodd" clip-rule="evenodd" d="M10.4188 15.9754L3.95287 11.8079H0V4.86208H3.95287L10.4188 0.69458V15.9754ZM4.1675 5.55041V11.1196L9.72417 14.7015V1.96845L4.1675 5.55041ZM14.05 2.61997C15.6663 4.00149 16.67 6.0526 16.67 8.33569C16.67 10.6195 15.6663 12.6706 14.0514 14.0514L13.5597 13.5597C15.0433 12.3157 15.9754 10.4333 15.9754 8.335C15.9754 6.23666 15.0433 4.35434 13.5597 3.11034L14.05 2.61997ZM12.0156 4.6544C13.0721 5.52749 13.7354 6.85415 13.7354 8.335C13.7354 9.81585 13.0721 11.1425 12.0156 12.0156L11.5252 11.5252C12.4497 10.7869 13.0408 9.6297 13.0408 8.33639C13.0408 7.04238 12.4497 5.8852 11.5238 5.14616L12.0156 4.6544ZM3.47292 5.55666H0.694583V11.1133H3.47292V5.55666Z" fill="white"/>
</svg>
